<svg data-v-decfdd8a="" version="1.0" xmlns="http://www.w3.org/2000/svg" xmlns:xlink="http://www.w3.org/1999/xlink" width="100%" height="100%" viewBox="0 0 340.000000 250.000000" preserveAspectRatio="xMidYMid meet" color-interpolation-filters="sRGB" style="margin: auto;"> 
<g data-v-decfdd8a="" fill="#eeeeee" class="pmspacesvg" transform="translate(4.0501708984375,84.86908912658691)"><!----> <g mask="url(#28db201e-24eb-47e6-994d-ac24afb704b1)"><g><rect data-gra="graph-name" fill="#eeeeee" fill-opacity="0.5" x="0" y="30" width="294.69000244140625" height="57.61000061035156" transform="rotate(10) translate(28.80500030517578 -49.11500040690104)"></rect> <rect data-gra="graph-name" fill="#eeeeee" fill-opacity="1" x="10" y="20" width="294.69000244140625" height="57.61000061035156"></rect></g> <g fill-opacity="0" transform="translate(10,20)"><g><rect data-gra="graph-name-bg" stroke-width="2" class="i-icon-bg" x="0" y="0" width="294.69000244140625" height="57.61000061035156"></rect> <!----> <!----> </g> <g transform="translate(10,10)"><g data-gra="path-name" fill-rule="" class="tp-name" fill="#073763" fill-opacity="1"><g transform="scale(1)"><g><path d="M31.29-24.55C31.29-32.75 25.49-37.09 16.14-37.09 7.73-37.09 2.09-32.91 2.09-27.27 2.09-13.95 24.24-18.75 24.24-10.13 24.24-7.16 21.16-5.22 16.77-5.22 11.7-5.22 8.72-7.84 8.72-12.07L1.57-12.07C1.57-3.4 7.68 0.52 16.92 0.52 25.39 0.52 31.29-3.71 31.29-10.13 31.29-23.4 8.93-19.38 8.93-27.16 8.93-30.3 12.75-31.39 16.19-31.39 20.95-31.39 24.24-28.73 24.24-24.55ZM32.13-36.57L32.13-29.72 61.17-29.72 61.17-36.57ZM43.15-25.07L43.15 0 50.2 0 50.2-25.07ZM79.3-36.57L70.36-36.57 57.25 0 64.88 0 74.59-28.99 75.12-28.99 85.51 0 93.66 0ZM122.18 0L129.08 0 129.08-36.57 122.34-36.57 122.34-11.39 122.08-11.39 104.42-36.57 97.16-36.57ZM97.47 0L104.32 0 104.32-17.92 97.47-27.69ZM135.76-36.57L135.76-29.72 148.56-29.72C154.78-29.72 159.43-27.32 159.43-18.28 159.43-9.19 154.83-6.9 148.61-6.9L135.76-6.9 135.76 0 150.86 0C161.99 0 166.85-7.94 166.85-18.28 166.85-28.68 161.99-36.57 150.86-36.57Z" transform="translate(-1.5699999332427979, 37.09000015258789)"></path></g> <!----> <!----> <!----> <!----> <!----> <!----> <g data-gra="path-name-1" fill="#eeeeee" transform="translate(168.27999877929688,0)"><g transform="scale(1)"><path d="M1.88-18.28C1.88-6.27 10.29 0.52 20.84 0.52 31.66 0.52 40.01-6.27 40.01-18.28 40.01-30.87 31.66-37.09 20.84-37.09 10.29-37.09 1.88-30.35 1.88-18.28ZM8.98-18.28C8.98-26.43 14.16-30.45 20.84-30.45 27.74-30.45 32.96-26.43 32.96-18.28 32.96-10.13 27.74-6.16 20.84-6.16 14.16-6.16 8.98-10.13 8.98-18.28ZM68.59-13.22L75.74-13.22 75.74-36.57 68.59-36.57ZM60.44 0.52C60.44 0.52 60.49-5.28 60.49-6.37 55.48-6.37 52.03-9.04 52.03-14.26L52.03-36.57 45.08-36.57 45.08-13.22C45.08-3.87 51.98 0.52 60.44 0.52ZM79.24-36.57L79.24-29.72 108.29-29.72 108.29-36.57ZM90.27-25.07L90.27 0 97.32 0 97.32-25.07Z" transform="translate(-1.8799999952316284, 37.09000015258789)"></path></g></g></g></g> <!----></g></g></g></g><mask id="28db201e-24eb-47e6-994d-ac24afb704b1"><g fill="white"><rect data-gra="graph-name" fill-opacity="1" x="0" y="30" width="294.69000244140625" height="57.61000061035156" transform="rotate(10) translate(28.80500030517578 -49.11500040690104)"></rect> <rect data-gra="graph-name" fill-opacity="1" x="10" y="20" width="294.69000244140625" height="57.61000061035156"></rect></g> <g fill-opacity="0" transform="translate(10,20)" fill="black"><g><rect data-gra="graph-name-bg" stroke-width="2" class="i-icon-bg" x="0" y="0" width="294.69000244140625" height="57.61000061035156"></rect>   </g> <g transform="translate(10,10)"><g data-gra="path-name" fill-rule="" class="tp-name" fill-opacity="1"><g transform="scale(1)"><g><path d="M31.29-24.55C31.29-32.75 25.49-37.09 16.14-37.09 7.73-37.09 2.09-32.91 2.09-27.27 2.09-13.95 24.24-18.75 24.24-10.13 24.24-7.16 21.16-5.22 16.77-5.22 11.7-5.22 8.72-7.84 8.72-12.07L1.57-12.07C1.57-3.4 7.68 0.52 16.92 0.52 25.39 0.52 31.29-3.71 31.29-10.13 31.29-23.4 8.93-19.38 8.93-27.16 8.93-30.3 12.75-31.39 16.19-31.39 20.95-31.39 24.24-28.73 24.24-24.55ZM32.13-36.57L32.13-29.72 61.17-29.72 61.17-36.57ZM43.15-25.07L43.15 0 50.2 0 50.2-25.07ZM79.3-36.57L70.36-36.57 57.25 0 64.88 0 74.59-28.99 75.12-28.99 85.51 0 93.66 0ZM122.18 0L129.08 0 129.08-36.57 122.34-36.57 122.34-11.39 122.08-11.39 104.42-36.57 97.16-36.57ZM97.47 0L104.32 0 104.32-17.92 97.47-27.69ZM135.76-36.57L135.76-29.72 148.56-29.72C154.78-29.72 159.43-27.32 159.43-18.28 159.43-9.19 154.83-6.9 148.61-6.9L135.76-6.9 135.76 0 150.86 0C161.99 0 166.85-7.94 166.85-18.28 166.85-28.68 161.99-36.57 150.86-36.57Z" transform="translate(-1.5699999332427979, 37.09000015258789)"></path></g>       <g data-gra="path-name-1" transform="translate(168.27999877929688,0)"><g transform="scale(1)"><path d="M1.88-18.28C1.88-6.27 10.29 0.52 20.84 0.52 31.66 0.52 40.01-6.27 40.01-18.28 40.01-30.87 31.66-37.09 20.84-37.09 10.29-37.09 1.88-30.35 1.88-18.28ZM8.98-18.28C8.98-26.43 14.16-30.45 20.84-30.45 27.74-30.45 32.96-26.43 32.96-18.28 32.96-10.13 27.74-6.16 20.84-6.16 14.16-6.16 8.98-10.13 8.98-18.28ZM68.59-13.22L75.74-13.22 75.74-36.57 68.59-36.57ZM60.44 0.52C60.44 0.52 60.49-5.28 60.49-6.37 55.48-6.37 52.03-9.04 52.03-14.26L52.03-36.57 45.08-36.57 45.08-13.22C45.08-3.87 51.98 0.52 60.44 0.52ZM79.24-36.57L79.24-29.72 108.29-29.72 108.29-36.57ZM90.27-25.07L90.27 0 97.32 0 97.32-25.07Z" transform="translate(-1.8799999952316284, 37.09000015258789)"></path></g></g></g></g> </g></g></mask><defs v-gra="od"></defs></svg>